<?xml version="1.0" encoding="utf-8"?>
<!-- Generator: Adobe Illustrator 18.0.0, SVG Export Plug-In . SVG Version: 6.00 Build 0)  -->
<!DOCTYPE svg PUBLIC "-//W3C//DTD SVG 1.1//EN" "http://www.w3.org/Graphics/SVG/1.1/DTD/svg11.dtd">
<svg version="1.1" id="Layer_1" xmlns="http://www.w3.org/2000/svg" xmlns:xlink="http://www.w3.org/1999/xlink" x="0px" y="0px"
	 viewBox="0 0 416.9 299" enable-background="new 0 0 416.9 299" xml:space="preserve">
<g id="am1-bg">
	<path fill="#303030" d="M152.2,3H6.5C4.6,3,3,4.6,3,6.5v286c0,1.9,1.6,3.5,3.5,3.5h145.7h1.5V3H152.2z"/>
	<path fill="#3F4040" d="M410.4,3H152.7h-0.4v293h0.4h257.8c1.9,0,3.5-1.6,3.5-3.5V6.5C413.9,4.6,412.4,3,410.4,3z"/>
	<path fill="#19F7DC" d="M410.4,0H6.5C2.9,0,0,2.9,0,6.5v286c0,3.6,2.9,6.5,6.5,6.5h145.7h0.4h257.8c3.6,0,6.5-2.9,6.5-6.5V6.5
		C416.9,2.9,414,0,410.4,0z M413.9,292.5c0,1.9-1.6,3.5-3.5,3.5H6.5c-1.9,0-3.5-1.6-3.5-3.5V6.5C3,4.6,4.6,3,6.5,3h403.9
		c1.9,0,3.5,1.6,3.5,3.5V292.5z"/>
</g>
<g id="am1-light-3">
	<path id="am1-light-face-3" fill="#F9E815" d="M315.9,228.8c-6,0-10.9,4.9-10.9,10.9s4.9,10.9,10.9,10.9s10.9-4.9,10.9-10.9
		S321.9,228.8,315.9,228.8z"/>
</g>
<g id="am1-light-2">
	<path id="am1-light-face-2" fill="#F9E815" d="M207.5,228.8c-6,0-10.9,4.9-10.9,10.9s4.9,10.9,10.9,10.9s10.9-4.9,10.9-10.9
		S213.5,228.8,207.5,228.8z"/>
</g>
<g id="am1-light-1">
	<path id="am1-light-face-1" fill="#F9E815" d="M99.2,228.8c-6,0-10.9,4.9-10.9,10.9s4.9,10.9,10.9,10.9c6,0,10.9-4.9,10.9-10.9
		S105.2,228.8,99.2,228.8z"/>
</g>
<g id="am1-switch-3">
	<path fill="#282828" d="M315.9,209.2L315.9,209.2c-5.8,0-10.5-4.7-10.5-10.5V67.8c0-5.8,4.7-10.5,10.5-10.5h0
		c5.8,0,10.5,4.7,10.5,10.5v130.8C326.4,204.5,321.7,209.2,315.9,209.2z"/>
	<g id="am1-trigger-3">
		<path id="am1-trigger-face-3" fill="#A3E8CE" d="M326.6,54.3h-21.4c-2.7,0-4.9,2.2-4.9,4.9v74.1c0,2.7,2.2,4.9,4.9,4.9h21.4
			c2.7,0,4.9-2.2,4.9-4.9V59.2C331.5,56.5,329.3,54.3,326.6,54.3z"/>
	</g>
</g>
<g id="am1-switch-2">
	<path fill="#282828" d="M207.6,209.2L207.6,209.2c-5.8,0-10.5-4.7-10.5-10.5V67.8c0-5.8,4.7-10.5,10.5-10.5h0
		c5.8,0,10.5,4.7,10.5,10.5v130.8C218.1,204.5,213.4,209.2,207.6,209.2z"/>
	<g id="am1-trigger-2">
		<path id="am1-trigger-face-2" fill="#A3E8CE" d="M218.3,54.3h-21.4c-2.7,0-4.9,2.2-4.9,4.9v74.1c0,2.7,2.2,4.9,4.9,4.9h21.4
			c2.7,0,4.9-2.2,4.9-4.9V59.2C223.2,56.5,221,54.3,218.3,54.3z"/>
	</g>
</g>
<g id="am1-switch-1">
	<path fill="#282828" d="M99.2,209.2L99.2,209.2c-5.8,0-10.5-4.7-10.5-10.5V67.8c0-5.8,4.7-10.5,10.5-10.5h0
		c5.8,0,10.5,4.7,10.5,10.5v130.8C109.8,204.5,105.1,209.2,99.2,209.2z"/>
	<g id="am1-trigger-1">
		<path id="am1-trigger-face-1" fill="#A3E8CE" d="M110,54.3H88.5c-2.7,0-4.9,2.2-4.9,4.9v74.1c0,2.7,2.2,4.9,4.9,4.9H110
			c2.7,0,4.9-2.2,4.9-4.9V59.2C114.9,56.5,112.7,54.3,110,54.3z"/>
	</g>
</g>
</svg>
