<svg enable-background="new 0 0 372.1 560.4" viewBox="0 0 372.1 560.4" xmlns="http://www.w3.org/2000/svg"><path d="m369.5 5.8c0-1.7-1.4-3.1-3.1-3.1h-360.6c-1.7 0-3.1 1.4-3.1 3.1v548.8c0 1.7 1.4 3.1 3.1 3.1h360.5c1.7 0 3.1-1.4 3.1-3.1v-548.8z" fill="#3f4040"/><path d="m372.2 5.8c0-3.2-2.6-5.8-5.8-5.8h-360.6c-3.2 0-5.8 2.6-5.8 5.8v548.8c0 3.2 2.6 5.8 5.8 5.8h360.5c3.2 0 5.8-2.6 5.8-5.8v-548.8zm-2.7 548.8c0 1.7-1.4 3.1-3.1 3.1h-360.6c-1.7 0-3.1-1.4-3.1-3.1v-548.8c0-1.7 1.4-3.1 3.1-3.1h360.5c1.7 0 3.1 1.4 3.1 3.1v548.8z" fill="#808080"/><path d="m340.9 39.2c0-2.5-2-4.5-4.5-4.5h-305.1c-2.5 0-4.5 2-4.5 4.5v200.8c0 2.5 2 4.5 4.5 4.5h305.2c2.5 0 4.5-2 4.5-4.5v-200.8z" fill="#212121"/><path d="m343.6 39.2c0-3.9-3.2-7.1-7.1-7.1h-305.2c-3.9 0-7.1 3.2-7.1 7.1v200.8c0 3.9 3.2 7.1 7.1 7.1h305.2c3.9 0 7.1-3.2 7.1-7.1zm-2.7 200.8c0 2.5-2 4.5-4.5 4.5h-305.1c-2.5 0-4.5-2-4.5-4.5v-200.8c0-2.5 2-4.5 4.5-4.5h305.2c2.5 0 4.5 2 4.5 4.5v200.8z" fill="#808080"/><path d="m285.8 527.8c-26.5 0-48-21.5-48-48v-126.3c0-26.5 21.5-48 48-48 26.5 0 48 21.5 48 48v126.2c0 26.6-21.5 48.1-48 48.1z" fill="#282828"/><path d="m286.1 325.9c-18.9 0-34.3 15.3-34.3 34.3 0 18.9 15.3 34.3 34.3 34.3s34.3-15.3 34.3-34.3c-.1-19-15.4-34.3-34.3-34.3z" fill="#808080"/><path d="m159.3 527.8c-26.5 0-48-21.5-48-48v-126.3c0-26.5 21.5-48 48-48 26.5 0 48 21.5 48 48v126.2c.1 26.6-21.5 48.1-48 48.1z" fill="#282828"/><path d="m159.7 325.9c-18.9 0-34.3 15.3-34.3 34.3 0 18.9 15.3 34.3 34.3 34.3s34.3-15.3 34.3-34.3-15.5-34.3-34.3-34.3z" fill="#808080"/><path d="m67.2 488.7h-25.4c-2.6 0-4.6-2.1-4.6-4.6v-136c0-2.4 2-4.5 4.5-4.5h25.8c2.4 0 4.5 2 4.5 4.5v135.9c-.2 2.5-2.3 4.7-4.8 4.7z" fill="#282828"/><path d="m37.1 345.3v69.6c0 1.4 1.2 2.7 2.7 2.7h29.5c1.4 0 2.7-1.2 2.7-2.7v-69.6c0-1.4-1.2-2.7-2.7-2.7h-29.5c-1.6.1-2.7 1.3-2.7 2.7z" fill="#656565"/><g fill="none" stroke-linecap="round" stroke-miterlimit="10" stroke-width="3"><path d="m29.5 140.8s18.7 39.6 77.6 39.6 93.9-87 150.9-87 79.4 47.4 79.4 47.4" stroke="#808080"/><path d="m29.5 140.8s22.1-47.4 81.8-47.4 83.4 87 150.8 87c44.5 0 75.3-39.6 75.3-39.6" stroke="#808080"/><path d="m29.5 139.6h307.9" stroke="#808080"/><path d="m27 66.1h314" stroke="#17fffb"/><path d="m27 137.7h314" stroke="#ffe600"/><path d="m27 215.5h314" stroke="#ff3e3e"/></g></svg>