<svg enable-background="new 89.6 0 780.8 560" viewBox="89.6 0 780.8 560" xmlns="http://www.w3.org/2000/svg"><path d="m374.6 5.6h-272.8c-3.6 0-6.6 3-6.6 6.6v535.7c0 3.6 3 6.6 6.6 6.6h272.9 2.8v-548.9z" fill="#303030"/><path d="m858.2 5.6h-482.6-.7v548.8h.7 482.8c3.6 0 6.6-3 6.6-6.6v-535.6c-.2-3.6-3-6.6-6.8-6.6z" fill="#3f4040"/><g fill="#808080"><path d="m858.2 0h-756.4c-6.8 0-12.2 5.4-12.2 12.2v535.7c0 6.7 5.4 12.2 12.2 12.2h272.9.7 482.8c6.7 0 12.2-5.4 12.2-12.2v-535.7c0-6.8-5.4-12.2-12.2-12.2zm6.6 547.8c0 3.6-3 6.6-6.6 6.6h-756.4c-3.6 0-6.6-3-6.6-6.6v-535.6c0-3.6 3-6.6 6.6-6.6h756.5c3.6 0 6.6 3 6.6 6.6v535.6z"/><path d="m681.2 428.5c-11.2 0-20.4 9.2-20.4 20.4s9.2 20.4 20.4 20.4 20.4-9.2 20.4-20.4-9.1-20.4-20.4-20.4z"/><path d="m478.2 428.5c-11.2 0-20.4 9.2-20.4 20.4s9.2 20.4 20.4 20.4 20.4-9.2 20.4-20.4-9.1-20.4-20.4-20.4z"/><path d="m275.4 428.5c-11.2 0-20.4 9.2-20.4 20.4s9.2 20.4 20.4 20.4 20.4-9.2 20.4-20.4-9.2-20.4-20.4-20.4z"/></g><path d="m681.2 391.8c-10.9 0-19.7-8.8-19.7-19.7v-245.1c0-10.9 8.8-19.7 19.7-19.7 10.9 0 19.7 8.8 19.7 19.7v245c0 11-8.8 19.8-19.7 19.8z" fill="#282828"/><path d="m701.3 101.7h-40.1c-5.1 0-9.2 4.1-9.2 9.2v138.8c0 5.1 4.1 9.2 9.2 9.2h40.1c5.1 0 9.2-4.1 9.2-9.2v-138.8c0-5.1-4.2-9.2-9.2-9.2z" fill="#656565"/><path d="m478.4 391.8c-10.9 0-19.7-8.8-19.7-19.7v-245.1c0-10.9 8.8-19.7 19.7-19.7 10.9 0 19.7 8.8 19.7 19.7v245c0 11-8.8 19.8-19.7 19.8z" fill="#282828"/><path d="m498.4 101.7h-40.1c-5.1 0-9.2 4.1-9.2 9.2v138.8c0 5.1 4.1 9.2 9.2 9.2h40.1c5.1 0 9.2-4.1 9.2-9.2v-138.8c0-5.1-4.1-9.2-9.2-9.2z" fill="#656565"/><path d="m275.4 391.8c-10.9 0-19.7-8.8-19.7-19.7v-245.1c0-10.9 8.8-19.7 19.7-19.7 10.9 0 19.7 8.8 19.7 19.7v245c.1 11-8.7 19.8-19.7 19.8z" fill="#282828"/><path d="m295.6 101.7h-40.3c-5.1 0-9.2 4.1-9.2 9.2v138.8c0 5.1 4.1 9.2 9.2 9.2h40.3c5.1 0 9.2-4.1 9.2-9.2v-138.8c0-5.1-4.1-9.2-9.2-9.2z" fill="#656565"/></svg>