<svg enable-background="new 0 0 860 299" viewBox="0 0 860 299" xmlns="http://www.w3.org/2000/svg"><path d="m6.8 3c-1.9 0-3.8 1.2-3.8 3.1v286c0 1.9 1.9 3.9 3.8 3.9h283.1l-.9-293z" fill="#303030"/><path d="m845 296c6.8 0 12-5.9 12-12.6v-268.5c0-6.8-5.3-11.9-12-11.9h-557v293.3z" fill="#3f4040"/><path d="m845 0h-559-279.2c-3.6 0-6.8 2.5-6.8 6.1v286c0 3.6 3.2 6.9 6.8 6.9h281.2 557c8.4 0 15-7.2 15-15.6v-268.5c0-8.4-6.6-14.9-15-14.9zm12 283.4c0 6.8-5.3 12.6-12 12.6h-838.2c-1.9 0-3.8-1.9-3.8-3.9v-286c0-1.9 1.9-3.1 3.8-3.1h838.2c6.8 0 12 5.1 12 11.9z" fill="#808080"/><path d="m672.7 219.6h-43c-2.8 0-5-2.2-5-5v-130.6c0-2.8 2.2-5 5-5h43c2.8 0 5 2.2 5 5v130.6c0 2.8-2.2 5-5 5z" fill="#303030"/><path d="m624.7 214.7v-62.1c0-2.7 2.2-5 5-5h43.1c2.7 0 5 2.2 5 5v62.1c0 2.7-2.2 5-5 5h-43.1c-2.8-.1-5-2.3-5-5z" fill="#808080"/><path d="m795.7 219.6h-43c-2.8 0-5-2.2-5-5v-130.6c0-2.8 2.2-5 5-5h43c2.8 0 5 2.2 5 5v130.6c0 2.8-2.2 5-5 5z" fill="#303030"/><path d="m747.7 214.7v-62.1c0-2.7 2.2-5 5-5h43.1c2.7 0 5 2.2 5 5v62.1c0 2.7-2.2 5-5 5h-43.1c-2.8-.1-5-2.3-5-5z" fill="#808080"/><circle cx="430" cy="149.3" fill="#282828" r="70.5"/><path d="m430 109.3c-22.1 0-40 17.9-40 40s17.9 40 40 40 40-17.9 40-40-17.9-40-40-40z" fill="#4d4d4d"/><circle cx="140.2" cy="149.3" fill="#282828" r="70.5"/><path d="m140.2 109.3c-22.1 0-40 17.9-40 40s17.9 40 40 40 40-17.9 40-40-17.9-40-40-40z" fill="#808080"/></svg>