<?xml version="1.0" encoding="utf-8"?>
<!-- Generator: Adobe Illustrator 18.0.0, SVG Export Plug-In . SVG Version: 6.00 Build 0)  -->
<!DOCTYPE svg PUBLIC "-//W3C//DTD SVG 1.1//EN" "http://www.w3.org/Graphics/SVG/1.1/DTD/svg11.dtd">
<svg version="1.1" id="module3" xmlns="http://www.w3.org/2000/svg" xmlns:xlink="http://www.w3.org/1999/xlink" x="0px" y="0px"
	 viewBox="86.6 0 786.8 560" enable-background="new 86.6 0 786.8 560" xml:space="preserve">
<g id="am3-bg">
	<path fill="#303030" d="M98.7,5.6c-3.5,0-6.5,3-6.5,6.5v535.7c0,3.5,3,6.5,6.5,6.5h194.1V5.6H98.7z"/>
	<path fill="#3F4040" d="M861.3,5.6H289.1l0.4,548.8h571.8c3.5,0,6.5-3,6.5-6.5V12.1C867.8,8.6,864.8,5.6,861.3,5.6z"/>
	<path fill="#808080" d="M861.3,0H285.4H98.7C92,0,86.6,5.4,86.6,12.1v535.7c0,6.7,5.4,12.1,12.1,12.1h191.3h1.3h569.9
		c6.7,0,12.1-5.4,12.1-12.1V12.1C873.4,5.4,868,0,861.3,0z M98.7,554.4c-3.5,0-6.5-3-6.5-6.5V12.1c0-3.5,3-6.5,6.5-6.5h186.7l0,0
		h575.9c3.5,0,6.5,3,6.5,6.5v535.7c0,3.5-3,6.5-6.5,6.5H98.7z"/>
</g>
<g id="am3-radar-face">
	<circle fill="#282828" cx="568.9" cy="288.2" r="154.4"/>
</g>
<g id="am3-outer-ring">
	<path fill="#808080" d="M568.9,500.5c-117,0-212.2-95.2-212.2-212.2S451.9,76,568.9,76s212.2,95.2,212.2,212.2
		S686,500.5,568.9,500.5z M568.9,79.7c-115,0-208.5,93.5-208.5,208.5S454,496.7,568.9,496.7s208.5-93.5,208.5-208.5
		S683.9,79.7,568.9,79.7z"/>
</g>
<path id="am3-radar-inner-ring" fill="#808080" d="M778,285.4H661.2c-1.5-49.7-42.2-89.4-92.2-89.4c-50,0-90.7,39.9-92.2,89.4H359.9
	v5.6h116.9c1.5,49.7,42.2,89.4,92.2,89.4c50,0,90.7-39.9,92.2-89.4H778V285.4z M568.9,201.6c46.9,0,85.1,37.3,86.6,83.8H482.3
	C483.8,238.9,522.1,201.6,568.9,201.6z M568.9,375c-46.9,0-85.1-37.3-86.6-83.8h173.2C654.1,337.5,615.8,375,568.9,375z"/>
<circle id="am3-radar-light" fill="#808080" cx="782.5" cy="289" r="17.5"/>
<path fill="#808080" d="M190,268.1c-11.2,0-20.3,9.1-20.3,20.3c0,11.2,9.1,20.3,20.3,20.3c11.2,0,20.3-9.1,20.3-20.3
	C210.4,277.2,201.2,268.1,190,268.1z"/>
</svg>
