<?xml version="1.0" encoding="utf-8"?>
<!-- Generator: Adobe Illustrator 18.0.0, SVG Export Plug-In . SVG Version: 6.00 Build 0)  -->
<!DOCTYPE svg PUBLIC "-//W3C//DTD SVG 1.1//EN" "http://www.w3.org/Graphics/SVG/1.1/DTD/svg11.dtd">
<svg version="1.1" id="module1" xmlns="http://www.w3.org/2000/svg" xmlns:xlink="http://www.w3.org/1999/xlink" x="0px" y="0px"
	 viewBox="89.6 0 780.8 560" enable-background="new 89.6 0 780.8 560" xml:space="preserve">
<g id="am1-bg">
	<path fill="#303030" d="M374.6,5.6H101.8c-3.6,0-6.6,3-6.6,6.6v535.7c0,3.6,3,6.6,6.6,6.6h272.9h2.8V5.6H374.6z"/>
	<path fill="#3F4040" d="M858.2,5.6H375.6h-0.7v548.8h0.7h482.8c3.6,0,6.6-3,6.6-6.6V12.2C864.8,8.6,862,5.6,858.2,5.6z"/>
	<path id="am1-bg-outline" fill="#808080" d="M858.2,0H101.8C95,0,89.6,5.4,89.6,12.2v535.7c0,6.7,5.4,12.2,12.2,12.2h272.9h0.7
		h482.8c6.7,0,12.2-5.4,12.2-12.2V12.2C870.4,5.4,865,0,858.2,0z M864.8,547.8c0,3.6-3,6.6-6.6,6.6H101.8c-3.6,0-6.6-3-6.6-6.6V12.2
		c0-3.6,3-6.6,6.6-6.6h756.5c3.6,0,6.6,3,6.6,6.6V547.8z"/>
</g>
<g id="am1-light-3">
	<path id="am1-light-face-3" fill="#808080" d="M681.2,428.5c-11.2,0-20.4,9.2-20.4,20.4s9.2,20.4,20.4,20.4
		c11.2,0,20.4-9.2,20.4-20.4S692.5,428.5,681.2,428.5z"/>
</g>
<g id="am1-light-2">
	<path id="am1-light-face-2" fill="#808080" d="M478.2,428.5c-11.2,0-20.4,9.2-20.4,20.4s9.2,20.4,20.4,20.4s20.4-9.2,20.4-20.4
		S489.5,428.5,478.2,428.5z"/>
</g>
<g id="am1-light-1">
	<path id="am1-light-face-1" fill="#808080" d="M275.4,428.5c-11.2,0-20.4,9.2-20.4,20.4s9.2,20.4,20.4,20.4s20.4-9.2,20.4-20.4
		S286.6,428.5,275.4,428.5z"/>
</g>
<g id="am1-switch-3">
	<path fill="#282828" d="M681.2,391.8L681.2,391.8c-10.9,0-19.7-8.8-19.7-19.7V127c0-10.9,8.8-19.7,19.7-19.7l0,0
		c10.9,0,19.7,8.8,19.7,19.7v245C700.9,383,692.1,391.8,681.2,391.8z"/>
	<g id="am1-trigger-3">
		<path id="am1-trigger-face-3" fill="#656565" d="M701.3,101.7h-40.1c-5.1,0-9.2,4.1-9.2,9.2v138.8c0,5.1,4.1,9.2,9.2,9.2h40.1
			c5.1,0,9.2-4.1,9.2-9.2V110.9C710.5,105.8,706.3,101.7,701.3,101.7z"/>
	</g>
</g>
<g id="am1-switch-2">
	<path fill="#282828" d="M478.4,391.8L478.4,391.8c-10.9,0-19.7-8.8-19.7-19.7V127c0-10.9,8.8-19.7,19.7-19.7l0,0
		c10.9,0,19.7,8.8,19.7,19.7v245C498.1,383,489.3,391.8,478.4,391.8z"/>
	<g id="am1-trigger-2">
		<path id="am1-trigger-face-2" fill="#656565" d="M498.4,101.7h-40.1c-5.1,0-9.2,4.1-9.2,9.2v138.8c0,5.1,4.1,9.2,9.2,9.2h40.1
			c5.1,0,9.2-4.1,9.2-9.2V110.9C507.6,105.8,503.5,101.7,498.4,101.7z"/>
	</g>
</g>
<g id="am1-switch-1">
	<path fill="#282828" d="M275.4,391.8L275.4,391.8c-10.9,0-19.7-8.8-19.7-19.7V127c0-10.9,8.8-19.7,19.7-19.7l0,0
		c10.9,0,19.7,8.8,19.7,19.7v245C295.2,383,286.4,391.8,275.4,391.8z"/>
	<g id="am1-trigger-1">
		<path id="am1-trigger-face-1" fill="#656565" d="M295.6,101.7h-40.3c-5.1,0-9.2,4.1-9.2,9.2v138.8c0,5.1,4.1,9.2,9.2,9.2h40.3
			c5.1,0,9.2-4.1,9.2-9.2V110.9C304.8,105.8,300.7,101.7,295.6,101.7z"/>
	</g>
</g>
</svg>
